<?xml version="1.0" standalone="no"?>
<!DOCTYPE svg PUBLIC "-//W3C//DTD SVG 20010904//EN"
 "http://www.w3.org/TR/2001/REC-SVG-20010904/DTD/svg10.dtd">
<svg version="1.0" xmlns="http://www.w3.org/2000/svg"
 width="240.000000pt" height="240.000000pt" viewBox="0 0 240.000000 240.000000"
 preserveAspectRatio="xMidYMid meet">
<metadata>
Created by potrace 1.11, written by Peter Selinger 2001-2013
</metadata>
<g transform="translate(0.000000,240.000000) scale(0.100000,-0.100000)"
fill="#000000" stroke="none">
<path d="M1307 2364 c-4 -4 -47 -6 -97 -5 -72 1 -98 -3 -133 -19 -24 -11 -112
-82 -195 -157 -120 -107 -154 -143 -162 -172 -6 -20 -17 -45 -25 -55 -8 -11
-15 -28 -15 -37 0 -10 -9 -33 -20 -51 -10 -18 -20 -42 -20 -53 -5 -82 1 -308
9 -344 8 -35 7 -47 -4 -55 -27 -21 -34 -62 -26 -143 10 -96 28 -161 53 -189
27 -30 75 -38 106 -18 13 9 21 11 18 5 -8 -12 14 -92 23 -87 3 2 6 -9 7 -24 1
-16 8 -36 18 -45 11 -12 16 -36 17 -88 1 -40 2 -119 3 -177 2 -100 4 -108 40
-180 41 -80 83 -134 202 -258 91 -94 116 -132 116 -177 l0 -35 112 1 111 0 38
47 c98 121 120 156 189 296 77 157 90 236 64 407 -14 86 -16 154 -6 191 37
141 40 148 60 138 25 -13 62 1 88 34 43 56 70 271 40 318 -15 22 -15 32 -4 74
7 27 11 58 9 69 -1 11 -7 58 -11 105 -5 47 -14 94 -20 105 -6 11 -16 46 -23
79 -6 32 -32 99 -57 148 -39 77 -53 95 -100 126 -30 20 -78 58 -106 85 -28 26
-54 47 -59 47 -4 0 -25 13 -45 30 -51 40 -177 82 -195 64z m-73 -100 c3 -8 10
-13 15 -10 5 3 11 -4 14 -15 4 -15 2 -19 -10 -15 -8 3 -19 6 -24 6 -6 0 -7 5
-4 10 4 6 1 17 -5 25 -7 9 -8 15 -2 15 5 0 13 -7 16 -16z m-104 -25 c0 -5 -4
-9 -10 -9 -5 0 -10 7 -10 16 0 8 5 12 10 9 6 -3 10 -10 10 -16z m77 -1 c-3 -8
-6 -5 -6 6 -1 11 2 17 5 13 3 -3 4 -12 1 -19z m-132 -17 c-6 -5 -25 10 -25 20
0 5 6 4 14 -3 8 -7 12 -15 11 -17z m240 9 c3 -5 -3 -10 -15 -10 -12 0 -18 5
-15 10 3 6 10 10 15 10 5 0 12 -4 15 -10z m-311 -65 c-4 -8 -7 -15 -9 -15 -2
0 -5 7 -9 15 -3 9 0 15 9 15 9 0 12 -6 9 -15z m546 -45 c65 -33 133 -102 170
-172 18 -35 38 -66 45 -71 8 -4 23 -37 36 -74 24 -74 29 -168 14 -310 -6 -62
-5 -83 4 -83 6 0 14 6 17 14 3 8 15 11 29 8 24 -4 25 -5 8 -33 -13 -23 -15
-31 -5 -41 9 -9 12 -7 12 11 0 14 5 21 13 18 6 -2 10 -11 8 -18 -3 -8 -5 -34
-6 -59 -3 -99 -5 -112 -17 -107 -44 16 -60 18 -54 8 4 -6 3 -11 -3 -11 -13 0
-2 73 13 82 13 8 26 1 26 -15 0 -7 -4 -6 -11 3 -7 10 -9 11 -7 2 2 -8 7 -13
11 -13 4 1 15 1 25 1 16 1 16 1 0 11 -10 5 -18 16 -18 23 0 8 -7 19 -15 26 -8
7 -15 28 -15 48 0 54 -8 35 -13 -34 -6 -68 -40 -198 -68 -260 -11 -22 -19 -50
-19 -63 0 -12 -5 -31 -11 -42 -6 -11 -11 -35 -11 -52 -1 -52 -78 -184 -99
-171 -5 3 -9 -4 -9 -15 0 -23 -18 -37 -42 -33 -12 2 -15 -2 -11 -16 2 -11 0
-22 -5 -26 -5 -3 -9 6 -9 20 0 31 -7 38 -29 30 -9 -3 -14 -12 -10 -21 3 -9 -1
-15 -10 -15 -11 0 -14 6 -10 16 3 9 6 20 6 25 0 5 9 9 20 9 22 0 25 7 11 29
-5 8 -14 10 -21 6 -9 -5 -11 -4 -6 4 4 6 0 14 -11 19 -23 9 -24 51 -1 74 10
10 22 18 26 18 4 0 9 12 10 27 1 15 7 30 13 34 8 5 8 8 0 13 -6 4 -11 16 -11
26 0 14 -5 18 -16 13 -13 -5 -13 -7 -2 -14 7 -5 8 -9 3 -9 -6 0 -27 11 -48 25
-20 14 -37 23 -37 19 0 -3 -8 0 -17 7 -15 12 -16 12 -8 -1 7 -12 5 -12 -11 1
-14 12 -37 16 -85 14 -80 -2 -125 -19 -158 -57 -13 -15 -27 -25 -31 -23 -4 3
-10 -2 -14 -10 -3 -9 3 -19 14 -25 11 -6 20 -15 20 -21 0 -6 -7 -3 -16 5 -19
20 -24 20 -24 1 0 -9 12 -21 26 -27 23 -11 24 -13 7 -19 -20 -7 -45 -1 -39 10
3 4 -4 13 -15 19 -18 12 -19 11 -10 -6 6 -11 7 -23 3 -27 -4 -5 -1 -5 6 -1 7
4 15 1 18 -8 7 -18 34 -22 34 -6 0 18 16 10 17 -8 1 -15 -6 -19 -35 -20 -20
-1 -39 4 -44 10 -4 7 -10 9 -14 6 -3 -4 1 -14 10 -23 20 -20 21 -29 2 -22 -8
3 -17 -1 -20 -10 -5 -11 -1 -14 13 -10 14 3 17 0 14 -14 -4 -13 0 -19 11 -19
9 0 16 8 16 20 0 23 19 26 39 7 11 -10 12 -9 6 2 -6 11 -4 13 10 7 10 -4 21
-2 25 5 6 8 9 8 14 0 4 -6 3 -11 -3 -11 -6 0 -8 -7 -5 -15 5 -11 2 -14 -12 -9
-16 6 -17 5 -6 -7 11 -12 15 -12 25 1 7 9 20 14 29 12 9 -2 26 2 37 8 17 9 20
8 15 -5 -4 -9 -3 -15 2 -13 15 3 54 -13 54 -22 0 -5 7 -7 16 -3 15 6 15 8 -2
20 -15 11 -16 13 -2 13 9 0 24 7 32 16 9 8 16 12 16 7 0 -4 14 -14 30 -21 41
-19 38 -28 -11 -30 -22 -1 -48 -6 -59 -12 -13 -7 -21 -6 -29 4 -9 11 -20 12
-52 4 -38 -10 -50 -35 -15 -32 23 2 20 -13 -4 -19 -12 -3 -20 0 -20 8 0 13
-27 30 -42 27 -5 -1 -8 3 -8 8 0 6 -5 10 -11 10 -7 0 -17 7 -23 16 -10 13 -16
13 -39 3 -14 -6 -24 -16 -21 -20 3 -5 -6 -5 -19 0 -14 6 -28 7 -31 3 -4 -3
-34 23 -67 59 -33 35 -57 58 -53 50 5 -10 3 -12 -5 -6 -8 4 -11 20 -9 36 3 15
1 26 -4 23 -11 -7 -10 7 1 25 6 9 3 20 -8 32 -10 10 -30 59 -45 109 -28 89
-46 121 -46 81 0 -14 -9 -23 -25 -27 -35 -9 -55 1 -55 27 0 12 -3 19 -7 16 -3
-4 -12 -2 -20 4 -16 14 -18 85 -2 94 18 12 21 -2 8 -39 -7 -20 -10 -38 -7 -41
8 -9 38 6 32 16 -9 15 14 10 30 -7 9 -9 16 -11 16 -4 0 6 5 8 10 5 6 -3 10 1
10 9 0 9 -3 15 -8 13 -4 -1 -7 1 -7 4 0 4 -8 16 -18 27 -16 18 -17 24 -6 44
13 23 14 23 19 -12 l6 -35 5 32 c3 19 1 34 -5 36 -7 2 -7 12 2 31 16 36 16
203 -1 252 -7 22 -12 49 -11 62 1 12 -2 25 -7 27 -10 7 -3 110 10 134 15 27
14 44 -1 36 -7 -4 -5 0 5 8 10 9 18 18 18 21 -3 20 0 26 9 21 6 -3 11 0 12 7
0 7 2 18 2 24 1 6 6 18 12 25 5 8 16 27 24 42 22 45 139 150 161 144 10 -3 20
2 23 10 4 10 13 12 28 7 13 -4 29 -7 37 -7 10 0 10 -3 -3 -12 -9 -7 -16 -16
-16 -20 0 -4 6 -3 13 2 6 6 25 13 40 15 22 4 27 2 23 -9 -3 -8 -6 -26 -6 -39
0 -13 -5 -24 -11 -24 -6 0 -8 8 -4 19 8 26 -10 35 -29 16 -9 -9 -22 -15 -30
-13 -8 2 -15 -1 -14 -6 0 -5 -6 -13 -14 -17 -9 -6 -7 -9 10 -9 12 0 22 -4 22
-10 0 -5 7 -10 15 -10 20 0 19 19 0 26 -14 6 -13 8 2 20 25 19 35 17 24 -5
-13 -23 -4 -33 20 -21 10 6 27 6 41 1 27 -10 68 -9 86 3 7 4 24 5 36 2 15 -4
28 0 36 9 8 10 9 15 2 15 -6 0 -9 6 -6 13 3 8 -1 14 -9 14 -8 0 -14 -7 -13
-15 1 -8 -9 -16 -21 -18 -20 -3 -23 1 -23 26 0 17 -4 30 -10 30 -5 0 -9 -3 -9
-7 3 -19 -2 -33 -12 -33 -6 0 -9 9 -6 19 6 23 -7 48 -17 32 -4 -6 -2 -11 4
-11 6 0 8 -5 3 -12 -4 -7 -7 -23 -8 -35 0 -12 -3 -25 -7 -29 -5 -4 -8 5 -8 21
0 23 -2 26 -15 15 -9 -7 -19 -10 -23 -6 -4 4 0 13 10 20 12 9 14 16 6 30 -5 9
-7 20 -4 23 3 4 6 1 6 -5 0 -7 5 -12 11 -12 5 0 7 5 4 10 -10 15 23 24 40 10
8 -6 18 -9 24 -6 5 3 22 1 37 -5 23 -8 25 -12 14 -19 -13 -8 -12 -10 2 -10 14
0 16 6 11 31 -6 31 -5 32 20 25 15 -3 27 -3 27 2 0 16 156 -5 200 -28z m-240
-80 c0 -5 -5 -10 -11 -10 -5 0 -7 5 -4 10 3 6 8 10 11 10 2 0 4 -4 4 -10z
m-572 -656 c17 -5 12 -66 -5 -72 -7 -2 -13 3 -13 11 0 8 -7 20 -16 27 -8 8
-20 22 -25 32 -9 17 -7 18 18 12 15 -3 34 -8 41 -10z m-41 -79 c-1 -22 -9 -43
-22 -55 -20 -19 -22 -19 -20 -3 2 27 28 93 36 93 4 0 7 -16 6 -35z m26 -110
c0 -6 -7 -11 -16 -13 -12 -3 -15 1 -11 13 7 17 25 17 27 0z m1140 -38 c-8 -42
-20 -57 -48 -57 -31 0 -33 6 -22 50 9 31 16 40 36 42 37 5 41 1 34 -35z m-441
-229 c6 -15 -1 -38 -11 -38 -4 0 -7 11 -7 25 0 26 11 34 18 13z m-129 -7 c4
-1 7 -5 7 -11 0 -5 -6 -7 -13 -4 -8 3 -24 1 -38 -4 -13 -5 -32 -7 -43 -4 -17
4 -16 5 5 17 13 7 35 12 49 10 14 -2 28 -4 33 -4z m89 -9 c4 -15 -1 -17 -34
-14 -44 5 -50 19 -10 25 15 2 30 5 33 6 4 0 9 -7 11 -17z m118 -2 c0 -5 -7
-10 -16 -10 -8 0 -12 5 -9 10 3 6 10 10 16 10 5 0 9 -4 9 -10z m-46 -35 c-5
-13 -63 -37 -73 -29 -10 8 14 25 30 21 10 -3 23 1 30 9 15 18 20 18 13 -1z
m-274 -18 c0 -7 -5 -18 -10 -23 -7 -7 -5 -17 6 -30 8 -10 13 -14 10 -9 -2 6 4
12 15 12 10 1 19 -4 19 -12 0 -8 8 -11 23 -8 21 4 21 4 3 -11 -21 -17 -36 -13
-36 12 0 12 -3 13 -12 4 -7 -7 -22 -12 -34 -12 -18 0 -20 4 -16 28 3 15 10 30
16 34 7 5 3 8 -9 8 -17 0 -17 2 -5 10 21 13 30 12 30 -3z m80 -17 c0 -5 -4
-10 -9 -10 -6 0 -13 5 -16 10 -3 6 1 10 9 10 9 0 16 -4 16 -10z m110 -2 c0 -4
-13 -8 -30 -8 -16 0 -30 4 -30 8 0 5 14 8 30 8 17 0 30 -3 30 -8z m36 -29 c4
-8 9 -7 15 2 6 10 9 8 9 -8 0 -32 -16 -36 -34 -8 -9 14 -12 25 -7 25 5 0 13
-5 17 -11z m294 -27 c0 -22 7 -61 15 -88 18 -60 10 -136 -17 -167 l-19 -22 6
22 c7 27 -25 49 -43 31 -24 -24 -11 8 13 35 14 15 21 27 15 27 -5 0 -10 7 -10
15 0 8 4 15 10 15 6 0 5 9 -1 24 -7 14 -17 22 -25 19 -9 -3 -12 4 -9 26 5 36
22 71 35 71 6 0 10 7 10 15 0 8 5 15 10 15 6 0 10 -17 10 -38z m-310 -3 c0 -4
-7 -6 -15 -3 -8 4 -15 10 -15 15 0 4 7 6 15 3 8 -4 15 -10 15 -15z m-486 2 c3
-5 -2 -15 -12 -22 -15 -13 -16 -12 -4 3 10 13 10 17 0 21 -9 4 -9 6 -1 6 6 1
14 -3 17 -8z m546 -37 c0 -14 -4 -23 -10 -19 -5 3 -10 15 -10 26 0 10 5 19 10
19 6 0 10 -12 10 -26z m-150 -4 c0 -5 -4 -10 -10 -10 -5 0 -10 5 -10 10 0 6 5
10 10 10 6 0 10 -4 10 -10z m-366 -31 c-20 -22 -34 -17 -27 10 3 13 11 17 24
14 19 -5 19 -7 3 -24z m13 -19 c-3 -11 -1 -20 4 -20 5 0 9 -4 9 -10 0 -5 -6
-10 -14 -10 -8 0 -17 -7 -20 -16 -8 -21 -26 -8 -21 16 2 11 0 20 -6 20 -5 0
-9 5 -9 10 0 7 6 7 20 0 11 -6 21 -8 21 -5 1 3 3 10 4 15 1 6 3 12 4 15 0 3 4
5 7 5 4 0 4 -9 1 -20z m97 -16 c3 -8 2 -12 -4 -9 -6 3 -10 10 -10 16 0 14 7
11 14 -7z m106 12 c0 -3 -4 -8 -10 -11 -5 -3 -10 -1 -10 4 0 6 5 11 10 11 6 0
10 -2 10 -4z m-30 -46 c-8 -15 -6 -21 7 -29 16 -9 16 -10 -4 -11 -24 0 -39 15
-23 25 5 3 10 15 10 26 0 11 5 17 10 14 7 -4 7 -12 0 -25z m300 20 c0 -5 -5
-10 -11 -10 -5 0 -7 5 -4 10 3 6 8 10 11 10 2 0 4 -4 4 -10z m80 -20 c0 -5 -9
-8 -19 -7 -10 0 -17 7 -14 13 5 13 33 8 33 -6z m-300 -7 c0 -8 -13 -12 -35
-11 -19 1 -35 6 -35 13 0 6 16 11 35 11 22 0 35 -5 35 -13z m-200 3 c0 -11
-19 -15 -25 -6 -3 5 1 10 9 10 9 0 16 -2 16 -4z m250 -6 c0 -5 -2 -10 -4 -10
-3 0 -8 5 -11 10 -3 6 -1 10 4 10 6 0 11 -4 11 -10z m178 -12 c-2 -6 -10 -14
-16 -16 -7 -2 -10 2 -6 12 7 18 28 22 22 4z m216 -14 c3 -8 1 -14 -4 -14 -6 0
-10 5 -10 10 0 6 -10 9 -22 7 -13 -2 -17 -2 -10 0 6 3 12 8 12 13 0 14 28 1
34 -16z m-464 -14 c0 -5 -7 -10 -15 -10 -8 0 -15 5 -15 10 0 6 7 10 15 10 8 0
15 -4 15 -10z m-130 -10 c0 -5 -2 -10 -4 -10 -3 0 -8 5 -11 10 -3 6 -1 10 4
10 6 0 11 -4 11 -10z m200 0 c0 -5 -2 -10 -4 -10 -3 0 -8 5 -11 10 -3 6 -1 10
4 10 6 0 11 -4 11 -10z m-270 -20 c0 -11 -30 -21 -41 -14 -20 12 -9 31 16 26
14 -2 25 -8 25 -12z m-60 0 c0 -5 -7 -7 -15 -4 -8 4 -15 8 -15 10 0 2 7 4 15
4 8 0 15 -4 15 -10z m110 6 c0 -3 -4 -8 -10 -11 -5 -3 -10 -1 -10 4 0 6 5 11
10 11 6 0 10 -2 10 -4z m37 -28 c-3 -7 -5 -2 -5 12 0 14 2 19 5 13 2 -7 2 -19
0 -25z m-123 -14 c4 -9 4 -19 1 -22 -6 -6 -35 18 -35 29 0 16 28 10 34 -7z
m168 -16 c-7 -7 -12 -8 -12 -2 0 14 12 26 19 19 2 -3 -1 -11 -7 -17z m-102
-30 c0 -13 -23 -5 -28 10 -2 7 2 10 12 6 9 -3 16 -11 16 -16z m40 -68 c0 -5
-5 -10 -11 -10 -5 0 -7 5 -4 10 3 6 8 10 11 10 2 0 4 -4 4 -10z m550 -20 c0
-5 -2 -10 -4 -10 -3 0 -8 5 -11 10 -3 6 -1 10 4 10 6 0 11 -4 11 -10z m-383
-124 c22 -22 72 -32 134 -27 57 5 65 4 66 -11 1 -12 -3 -15 -14 -11 -11 4 -14
2 -9 -5 5 -8 0 -12 -12 -12 -11 0 -30 -8 -41 -18 -22 -17 -21 -17 33 -17 30
-1 52 3 50 7 -3 4 2 5 10 2 9 -3 16 -8 16 -10 0 -8 -60 -64 -70 -64 -5 0 -10
-4 -10 -10 0 -5 -23 -10 -51 -10 -53 0 -81 18 -94 60 -3 10 -12 21 -20 24 -19
7 -19 23 0 23 8 0 15 -5 15 -11 0 -6 5 -5 12 2 6 6 10 13 7 14 -2 2 -17 10
-33 18 -27 14 -41 43 -30 61 5 9 31 6 41 -5z m93 -246 c12 -8 11 -10 -7 -10
-13 0 -23 5 -23 10 0 13 11 13 30 0z m45 0 c3 -5 -1 -10 -10 -10 -9 0 -13 5
-10 10 3 6 8 10 10 10 2 0 7 -4 10 -10z"/>
<path d="M1330 2120 c-12 -8 -13 -12 -2 -19 8 -4 13 -11 12 -15 -2 -14 19 -40
26 -33 5 5 2 12 -5 17 -8 4 -11 15 -8 24 4 9 2 16 -4 16 -6 0 -7 5 -4 10 8 12
4 12 -15 0z"/>
<path d="M1036 2083 c-6 -14 -5 -15 5 -6 7 7 10 15 7 18 -3 3 -9 -2 -12 -12z"/>
<path d="M1400 2061 c0 -6 5 -11 10 -11 6 0 10 -5 10 -11 0 -8 -6 -7 -17 2
-12 10 -17 11 -20 2 -2 -7 -11 -9 -19 -6 -8 3 -14 0 -14 -5 0 -6 18 -10 40 -9
34 1 40 4 38 21 -3 20 -28 36 -28 17z"/>
<path d="M960 2011 c0 -11 -10 -30 -22 -42 -19 -19 -20 -21 -4 -15 15 5 18 2
14 -19 -7 -35 23 -52 41 -24 6 11 9 30 5 41 -5 15 -3 19 7 13 8 -5 6 1 -3 12
-10 11 -18 25 -18 31 0 6 -4 14 -10 17 -5 3 -10 -3 -10 -14z"/>
<path d="M1001 2014 c0 -11 3 -14 6 -6 3 7 2 16 -1 19 -3 4 -6 -2 -5 -13z"/>
<path d="M1512 2000 c1 -16 4 -27 7 -24 8 8 7 54 -1 54 -5 0 -7 -13 -6 -30z"/>
<path d="M1040 1992 c0 -4 10 -9 22 -9 18 -2 20 0 8 7 -18 12 -30 13 -30 2z"/>
<path d="M1416 1983 c-6 -14 -5 -15 5 -6 7 7 10 15 7 18 -3 3 -9 -2 -12 -12z"/>
<path d="M1550 1992 c0 -5 7 -13 16 -16 10 -4 14 -1 12 6 -5 15 -28 23 -28 10z"/>
<path d="M1220 1960 c0 -5 9 -14 20 -20 16 -8 20 -8 18 2 -5 23 -38 39 -38 18z"/>
<path d="M1456 1946 c7 -18 13 -19 33 -7 9 6 10 11 2 15 -6 4 -11 2 -11 -5 0
-8 -4 -8 -15 1 -13 11 -14 10 -9 -4z"/>
<path d="M1083 1935 c0 -8 4 -12 9 -9 4 3 8 9 8 15 0 5 -4 9 -8 9 -5 0 -9 -7
-9 -15z"/>
<path d="M1533 1937 c-12 -15 -11 -37 2 -38 12 -1 26 39 16 46 -5 2 -13 -1
-18 -8z"/>
<path d="M888 1933 c7 -3 16 -2 19 1 4 3 -2 6 -13 5 -11 0 -14 -3 -6 -6z"/>
<path d="M1424 1906 c3 -12 6 -25 6 -31 0 -5 5 -3 10 5 6 9 10 11 10 3 0 -7 7
-10 15 -7 28 11 17 41 -16 46 -27 4 -30 2 -25 -16z"/>
<path d="M887 1906 c-3 -9 -1 -30 5 -48 9 -24 8 -33 0 -36 -17 -5 -15 -22 4
-22 8 0 12 5 9 10 -3 6 -1 10 5 10 6 0 9 4 5 9 -3 5 3 12 14 16 11 3 22 12 25
21 4 12 2 12 -14 4 -11 -6 -20 -9 -21 -8 0 2 -2 11 -4 22 -5 28 -21 40 -28 22z"/>
<path d="M995 1909 c-10 -15 3 -25 16 -12 7 7 7 13 1 17 -6 3 -14 1 -17 -5z"/>
<path d="M1569 1898 c5 -15 18 -23 34 -25 l26 -2 -21 25 c-28 31 -50 32 -39 2z"/>
<path d="M1627 1914 c-8 -8 1 -24 14 -24 5 0 9 7 9 15 0 15 -12 20 -23 9z"/>
<path d="M1412 1851 c-10 -6 -10 -10 3 -21 19 -15 25 -11 16 12 -4 11 -11 14
-19 9z"/>
<path d="M1453 1853 c9 -2 23 -2 30 0 6 3 -1 5 -18 5 -16 0 -22 -2 -12 -5z"/>
<path d="M836 1841 c-4 -7 -5 -15 -2 -18 9 -9 19 4 14 18 -4 11 -6 11 -12 0z"/>
<path d="M1540 1840 c0 -5 5 -10 11 -10 5 0 7 5 4 10 -3 6 -8 10 -11 10 -2 0
-4 -4 -4 -10z"/>
<path d="M1650 1833 c0 -10 4 -14 8 -8 4 6 11 13 16 18 5 4 2 7 -7 7 -10 0
-17 -8 -17 -17z"/>
<path d="M1620 1829 c0 -5 5 -7 10 -4 6 3 10 8 10 11 0 2 -4 4 -10 4 -5 0 -10
-5 -10 -11z"/>
<path d="M1340 1805 c0 -8 2 -15 4 -15 2 0 6 7 10 15 3 8 1 15 -4 15 -6 0 -10
-7 -10 -15z"/>
<path d="M860 1785 c0 -8 4 -15 10 -15 5 0 7 7 4 15 -4 8 -8 15 -10 15 -2 0
-4 -7 -4 -15z"/>
<path d="M1413 1786 c0 -8 6 -12 14 -9 7 3 10 9 7 14 -8 14 -21 11 -21 -5z"/>
<path d="M1285 1780 c3 -5 1 -10 -4 -10 -6 0 -11 -9 -11 -20 0 -14 -5 -18 -16
-13 -9 3 -20 0 -24 -7 -6 -9 -12 -6 -25 14 -19 29 -72 39 -61 11 3 -9 -1 -18
-9 -21 -8 -4 -13 -10 -10 -14 6 -10 -72 -18 -88 -8 -6 4 -17 2 -24 -4 -7 -5
-20 -8 -28 -4 -8 3 -15 1 -15 -3 0 -5 -9 -7 -20 -4 -22 6 -26 -7 -8 -25 9 -9
9 -12 0 -12 -7 0 -12 3 -12 8 0 4 -11 7 -24 7 -13 0 -22 -3 -19 -7 7 -12 -10
-9 -29 6 -10 7 -15 16 -11 19 3 4 1 7 -6 7 -7 0 -11 -8 -9 -17 2 -10 11 -17
19 -15 10 2 9 -2 -3 -11 -20 -15 -24 -37 -8 -37 6 0 10 -7 10 -16 0 -8 -4 -12
-10 -9 -17 11 -11 -44 7 -65 10 -11 26 -20 36 -20 10 0 15 -5 11 -11 -3 -6
-18 -8 -33 -5 -14 3 -21 3 -15 0 7 -3 10 -14 7 -24 -4 -17 0 -20 26 -20 22 0
40 -9 57 -27 20 -22 36 -28 67 -29 23 0 49 -3 57 -6 8 -2 12 -3 8 -1 -5 3 -8
9 -8 14 0 6 4 8 9 5 5 -3 11 1 15 9 3 8 10 15 17 15 23 0 71 43 66 59 -2 9 3
23 11 30 12 12 16 12 24 0 7 -10 8 -8 5 9 -4 15 0 22 10 22 8 0 11 5 8 10 -3
6 1 10 10 10 10 0 13 5 9 12 -4 7 -3 8 5 4 6 -4 9 -11 6 -16 -3 -5 4 -14 15
-20 17 -9 20 -8 21 7 0 11 3 13 6 5 3 -7 -1 -19 -7 -27 -10 -12 -10 -15 2 -15
23 0 58 30 58 50 0 10 5 22 10 25 6 3 10 1 10 -4 0 -6 10 -10 23 -10 16 1 17
3 5 6 -12 3 -16 13 -15 32 2 24 4 26 20 17 9 -6 13 -12 7 -14 -6 -2 -8 -8 -5
-12 3 -5 22 0 42 11 30 17 35 18 29 4 -3 -9 -6 -19 -6 -21 0 -2 -9 -4 -19 -4
-11 0 -21 -9 -25 -23 -3 -13 -12 -24 -20 -24 -8 0 -13 4 -10 9 3 4 0 8 -5 8
-6 0 -11 -11 -11 -25 0 -22 -3 -24 -19 -16 -15 9 -20 7 -24 -9 -3 -11 -2 -18
3 -15 4 3 20 -5 34 -16 21 -17 24 -24 15 -35 -16 -19 -24 -18 -36 8 -6 14 -12
18 -16 11 -4 -6 -2 -17 5 -25 7 -7 14 -20 16 -28 2 -8 7 -19 12 -24 5 -5 7 0
4 12 -5 16 -1 20 20 18 14 0 26 -5 26 -10 0 -5 2 -7 5 -4 3 3 -1 18 -10 34
-17 34 -19 54 -5 54 10 0 14 -21 11 -48 -1 -7 2 -11 6 -10 4 1 18 -1 31 -6 24
-8 30 -26 8 -26 -9 0 -12 -7 -9 -20 3 -11 10 -20 15 -20 5 0 6 -5 3 -10 -4 -6
-11 -8 -16 -5 -5 4 -9 1 -9 -5 0 -15 42 -2 53 17 7 12 11 11 23 -4 7 -10 14
-13 14 -8 0 6 4 5 8 -2 6 -9 11 -7 20 7 7 11 8 19 3 18 -5 -2 -8 2 -7 7 1 13
27 14 44 2 20 -15 37 7 17 23 -21 18 -19 33 5 27 10 -3 24 1 31 9 6 8 20 14
30 14 11 0 19 3 19 8 -1 12 -48 62 -60 62 -5 0 -10 5 -10 10 0 6 -18 10 -40
10 -29 0 -40 4 -40 15 0 8 5 15 12 15 6 0 3 6 -7 14 -19 13 -17 15 19 21 42 8
69 -11 42 -29 -11 -8 -10 -13 9 -28 29 -22 61 -23 69 -2 9 23 7 31 -4 14 -7
-11 -14 -12 -26 -5 -19 12 -20 30 -1 31 6 0 26 -8 44 -18 32 -19 32 -19 30 2
-1 11 -7 20 -14 20 -7 0 -10 7 -6 16 4 11 1 15 -13 12 -23 -3 -77 35 -66 47 4
4 -4 5 -16 2 -20 -5 -23 -2 -19 14 3 10 1 17 -4 14 -5 -3 -19 0 -31 7 -13 7
-27 11 -32 10 -4 -2 -14 2 -21 8 -9 8 -15 8 -20 0 -8 -14 -25 -3 -25 16 0 8 4
12 10 9 5 -3 7 0 4 9 -8 20 -28 11 -44 -20 -18 -33 -57 -32 -72 1 -11 24 -13
24 -34 10 -27 -18 -44 -19 -44 -4 0 5 4 8 9 4 5 -3 13 0 17 6 4 8 3 9 -5 5 -6
-4 -14 0 -17 8 -3 9 -10 16 -16 16 -5 0 -6 -4 -3 -10z m-101 -28 c-5 -4 -12
-11 -15 -15 -3 -5 -9 -2 -12 5 -3 9 3 14 15 15 11 1 16 -1 12 -5z m-14 -62 c0
-13 -11 -13 -30 0 -12 8 -11 10 8 10 12 0 22 -4 22 -10z m36 -45 c-2 -7 1 -12
7 -11 14 1 17 -6 17 -35 0 -15 -5 -20 -22 -17 -13 2 -29 9 -37 16 -10 10 -16
11 -21 2 -6 -9 -9 -9 -14 -1 -4 6 -11 9 -16 6 -5 -3 -11 -1 -15 5 -3 6 4 10
17 10 13 1 32 11 42 24 20 24 51 24 42 1z m-196 -31 c0 -2 -7 -4 -15 -4 -8 0
-15 4 -15 10 0 5 7 7 15 4 8 -4 15 -8 15 -10z m-29 -37 c-6 -8 -7 -18 -3 -22
4 -5 1 -5 -6 -1 -10 6 -10 11 -1 22 6 8 14 14 16 14 3 0 0 -6 -6 -13z m-82
-19 c-5 -10 -17 -18 -27 -17 -10 0 -12 3 -4 6 6 2 12 10 12 17 0 7 7 13 14 13
11 0 13 -5 5 -19z m104 7 c-3 -9 -8 -14 -10 -11 -3 3 -2 9 2 15 9 16 15 13 8
-4z m452 -5 c-3 -5 -11 -10 -16 -10 -6 0 -7 5 -4 10 3 6 11 10 16 10 6 0 7 -4
4 -10z m-268 -16 c-3 -3 -12 -4 -19 -1 -8 3 -5 6 6 6 11 1 17 -2 13 -5z m266
-19 c-3 -9 -8 -14 -10 -11 -3 3 -2 9 2 15 9 16 15 13 8 -4z m-353 -35 c0 -4
-9 -10 -20 -13 -22 -6 -23 -5 -14 17 6 14 34 12 34 -4z m418 -15 c-2 -2 -14
-1 -27 2 -23 6 -23 7 -5 20 15 11 19 11 27 -3 5 -8 7 -17 5 -19z m127 5 c-3
-4 -13 -10 -24 -13 -17 -4 -18 -2 -9 13 7 10 17 16 25 13 7 -3 11 -9 8 -13z
m-670 0 c8 -13 -5 -13 -25 0 -13 8 -13 10 2 10 9 0 20 -4 23 -10z m-1 -51 c-3
-5 -10 -7 -15 -3 -5 3 -7 10 -3 15 3 5 10 7 15 3 5 -3 7 -10 3 -15z"/>
<path d="M1510 1766 c0 -11 9 -16 27 -16 22 0 26 15 5 15 -4 0 -13 4 -19 8 -9
5 -13 3 -13 -7z"/>
<path d="M1026 1761 c-3 -5 1 -12 10 -15 22 -8 25 -4 9 11 -8 7 -16 9 -19 4z"/>
<path d="M1380 1765 c0 -13 21 -35 33 -35 5 0 7 5 5 11 -2 6 -7 10 -12 9 -5
-1 -13 4 -17 12 -5 7 -9 8 -9 3z"/>
<path d="M1691 1754 c0 -11 3 -14 6 -6 3 7 2 16 -1 19 -3 4 -6 -2 -5 -13z"/>
<path d="M815 1751 c-9 -15 8 -35 24 -30 8 3 7 10 -2 23 -10 14 -16 16 -22 7z"/>
<path d="M1640 1721 c-9 -17 -6 -23 19 -35 28 -15 29 -15 23 7 -3 12 -11 28
-18 35 -11 10 -15 9 -24 -7z"/>
<path d="M896 1705 c-11 -8 -15 -15 -10 -15 6 0 19 7 30 15 10 8 15 14 9 14
-5 0 -19 -6 -29 -14z"/>
<path d="M792 1654 c-7 -8 -8 -14 -3 -14 10 0 25 19 20 25 -2 1 -10 -3 -17
-11z"/>
<path d="M1695 1660 c-3 -5 -1 -10 4 -10 6 0 11 5 11 10 0 6 -2 10 -4 10 -3 0
-8 -4 -11 -10z"/>
<path d="M815 1490 c-3 -5 -1 -10 4 -10 6 0 11 5 11 10 0 6 -2 10 -4 10 -3 0
-8 -4 -11 -10z"/>
<path d="M1210 1434 c0 -8 4 -12 10 -9 5 3 12 -5 15 -18 4 -13 13 -24 21 -24
11 0 11 3 1 15 -9 12 -9 16 0 19 10 4 9 8 -1 19 -19 19 -46 18 -46 -2z"/>
<path d="M810 1426 c0 -2 7 -7 16 -10 8 -3 12 -2 9 4 -6 10 -25 14 -25 6z"/>
<path d="M1139 1408 c0 -2 -2 -11 -4 -21 -3 -15 -1 -16 11 -6 7 6 11 15 8 20
-5 9 -13 12 -15 7z"/>
<path d="M1404 1391 c0 -12 7 -19 18 -18 16 1 16 3 1 19 -20 22 -19 22 -19 -1z"/>
<path d="M1408 1338 c5 -5 16 -8 23 -6 8 3 3 7 -10 11 -17 4 -21 3 -13 -5z"/>
<path d="M1367 1304 c-4 -4 -7 -14 -7 -23 0 -11 3 -12 11 -4 6 6 10 16 7 23
-2 6 -7 8 -11 4z"/>
<path d="M1390 1279 c0 -5 5 -7 10 -4 6 3 10 8 10 11 0 2 -4 4 -10 4 -5 0 -10
-5 -10 -11z"/>
<path d="M1115 1269 c-4 -6 -4 -13 -1 -16 3 -4 6 -1 6 5 0 7 4 12 9 12 6 0 4
-15 -3 -32 -11 -26 -11 -41 -2 -68 9 -29 17 -36 48 -41 27 -4 39 -2 42 8 3 8
1 11 -4 8 -6 -3 -10 -2 -10 3 0 5 11 12 25 14 17 4 25 1 25 -8 0 -19 70 -18
84 1 8 11 18 13 41 6 17 -5 24 -10 18 -10 -24 -2 -13 -21 11 -21 32 0 76 37
76 63 0 36 -11 65 -25 71 -8 3 -12 0 -10 -7 14 -46 14 -67 -1 -81 -8 -9 -20
-16 -25 -16 -6 0 -3 7 6 17 19 19 11 26 -42 36 -24 5 -35 2 -41 -9 -5 -9 -11
-15 -13 -13 -9 5 -49 -13 -49 -23 0 -6 -8 0 -18 12 -11 13 -31 23 -55 25 -35
3 -37 2 -37 -26 0 -27 -2 -29 -20 -19 -24 13 -26 44 -5 84 8 15 15 30 15 32 0
9 -39 3 -45 -7z"/>
<path d="M1175 1269 c-4 -6 -5 -12 -2 -15 2 -3 7 2 10 11 7 17 1 20 -8 4z"/>
<path d="M1268 1249 c-25 -14 -22 -22 13 -38 27 -12 33 -11 47 3 15 15 15 17
-3 31 -24 17 -34 18 -57 4z"/>
<path d="M1080 1204 c0 -8 5 -12 10 -9 6 3 10 10 10 16 0 5 -4 9 -10 9 -5 0
-10 -7 -10 -16z"/>
<path d="M860 1185 c0 -8 7 -15 15 -15 8 0 15 -5 15 -11 0 -5 5 -7 11 -3 8 4
9 0 4 -15 -5 -16 -3 -20 9 -15 19 7 19 9 6 35 -6 10 -17 19 -25 19 -8 0 -15 5
-15 10 0 6 -4 10 -10 10 -5 0 -10 -7 -10 -15z"/>
<path d="M1475 1150 c4 -6 13 -9 20 -6 8 3 16 1 19 -5 2 -5 3 -4 2 3 -1 7 -13
15 -25 16 -16 3 -21 0 -16 -8z"/>
<path d="M905 1048 c3 -30 -12 -58 -31 -58 -14 0 -14 -2 0 -15 8 -8 18 -15 21
-15 4 0 5 7 1 15 -3 8 -1 15 4 15 6 0 10 -4 10 -8 0 -5 8 -8 18 -7 9 0 17 5
17 10 0 6 -3 9 -6 8 -4 -1 -9 7 -12 18 -4 15 -2 19 9 15 11 -4 10 0 -3 19 -22
31 -30 31 -28 3z"/>
<path d="M1255 1050 c-4 -8 -3 -11 1 -8 4 4 15 3 25 -2 20 -11 52 -3 46 13 -5
16 -66 14 -72 -3z"/>
<path d="M1195 1040 c-3 -5 -2 -10 4 -10 5 0 13 5 16 10 3 6 2 10 -4 10 -5 0
-13 -4 -16 -10z"/>
<path d="M1400 1046 c0 -2 7 -9 15 -16 9 -7 15 -8 15 -2 0 5 -7 12 -15 16 -8
3 -15 4 -15 2z"/>
<path d="M1660 1034 c0 -8 5 -12 10 -9 6 4 8 11 5 16 -9 14 -15 11 -15 -7z"/>
<path d="M1155 1020 c-3 -5 -1 -10 4 -10 6 0 11 5 11 10 0 6 -2 10 -4 10 -3 0
-8 -4 -11 -10z"/>
<path d="M1450 1015 c0 -8 7 -15 16 -15 14 0 14 3 4 15 -7 8 -14 15 -16 15 -2
0 -4 -7 -4 -15z"/>
<path d="M1630 1016 c0 -9 5 -16 10 -16 6 0 10 4 10 9 0 6 -4 13 -10 16 -5 3
-10 -1 -10 -9z"/>
<path d="M1490 1009 c0 -5 5 -7 10 -4 6 3 10 8 10 11 0 2 -4 4 -10 4 -5 0 -10
-5 -10 -11z"/>
<path d="M1125 1000 c-3 -5 -1 -10 4 -10 6 0 11 5 11 10 0 6 -2 10 -4 10 -3 0
-8 -4 -11 -10z"/>
<path d="M940 950 c-13 -8 -12 -10 3 -10 9 0 17 5 17 10 0 12 -1 12 -20 0z"/>
<path d="M983 935 c0 -8 4 -12 9 -9 4 3 8 9 8 15 0 5 -4 9 -8 9 -5 0 -9 -7 -9
-15z"/>
<path d="M1013 935 c0 -8 4 -12 9 -9 5 3 6 10 3 15 -9 13 -12 11 -12 -6z"/>
<path d="M900 910 c0 -5 5 -10 11 -10 5 0 7 -4 4 -10 -3 -5 0 -7 8 -4 8 3 18
-5 25 -18 10 -22 11 -21 9 8 -1 22 -5 30 -14 27 -7 -3 -13 0 -13 6 0 6 -7 11
-15 11 -8 0 -15 -4 -15 -10z"/>
<path d="M983 885 c0 -8 6 -15 13 -15 8 0 11 6 8 15 -4 8 -9 15 -13 15 -4 0
-8 -7 -8 -15z"/>
<path d="M1550 891 c0 -5 7 -12 16 -15 21 -8 24 -8 24 5 0 5 -4 7 -10 4 -5 -3
-10 -1 -10 4 0 6 -4 11 -10 11 -5 0 -10 -4 -10 -9z"/>
<path d="M1508 841 c-31 -31 -36 -51 -12 -51 9 0 12 5 8 12 -4 6 0 16 8 22 12
9 33 47 25 46 -1 0 -14 -13 -29 -29z"/>
<path d="M973 841 c1 -12 8 -19 20 -18 16 1 16 3 3 13 -9 6 -13 14 -9 17 3 4
1 7 -5 7 -6 0 -10 -9 -9 -19z"/>
<path d="M953 820 c2 -8 13 -19 25 -25 23 -10 30 -35 10 -35 -6 0 -8 -3 -5 -6
11 -11 36 16 30 32 -3 8 -13 14 -24 14 -10 0 -23 8 -29 18 -8 11 -10 12 -7 2z"/>
<path d="M1585 810 c-3 -5 1 -10 9 -10 9 0 16 5 16 10 0 6 -4 10 -9 10 -6 0
-13 -4 -16 -10z"/>
<path d="M1521 774 c0 -11 3 -14 6 -6 3 7 2 16 -1 19 -3 4 -6 -2 -5 -13z"/>
<path d="M1530 735 c0 -18 26 -20 36 -3 4 7 3 8 -4 4 -7 -4 -12 -2 -12 3 0 6
-4 11 -10 11 -5 0 -10 -7 -10 -15z"/>
<path d="M1805 1130 c3 -5 8 -10 11 -10 2 0 4 5 4 10 0 6 -5 10 -11 10 -5 0
-7 -4 -4 -10z"/>
<path d="M1671 734 c0 -11 3 -14 6 -6 3 7 2 16 -1 19 -3 4 -6 -2 -5 -13z"/>
<path d="M1694 591 c4 -5 1 -12 -4 -14 -6 -3 -5 -4 2 -3 15 3 23 26 8 26 -6 0
-9 -4 -6 -9z"/>
</g>
</svg>
